<mxfile host="app.diagrams.net" modified="2024-04-10T10:59:38.838Z" agent="Mozilla/5.0 (Windows NT 10.0; Win64; x64) AppleWebKit/537.36 (KHTML, like Gecko) Chrome/123.0.0.0 Safari/537.36 Edg/123.0.0.0" etag="WnId9qNCLf18iV_wlkL-" version="24.2.3" type="github">
  <diagram name="Page-1" id="ka4P0flJ7yDIF_-vth0C">
    <mxGraphModel dx="1023" dy="1012" grid="1" gridSize="10" guides="1" tooltips="1" connect="1" arrows="1" fold="1" page="1" pageScale="1" pageWidth="827" pageHeight="1169" math="0" shadow="0">
      <root>
        <mxCell id="0" />
        <mxCell id="1" parent="0" />
        <mxCell id="7QPr5qwVDU5LMz_-wU56-3" value="" style="edgeStyle=orthogonalEdgeStyle;rounded=0;orthogonalLoop=1;jettySize=auto;html=1;" edge="1" parent="1" source="7QPr5qwVDU5LMz_-wU56-1" target="7QPr5qwVDU5LMz_-wU56-2">
          <mxGeometry relative="1" as="geometry" />
        </mxCell>
        <mxCell id="7QPr5qwVDU5LMz_-wU56-1" value="Test" style="rounded=0;whiteSpace=wrap;html=1;" vertex="1" parent="1">
          <mxGeometry x="80" y="80" width="120" height="60" as="geometry" />
        </mxCell>
        <mxCell id="7QPr5qwVDU5LMz_-wU56-2" value="Test" style="rounded=0;whiteSpace=wrap;html=1;" vertex="1" parent="1">
          <mxGeometry x="280" y="80" width="120" height="60" as="geometry" />
        </mxCell>
      </root>
    </mxGraphModel>
  </diagram>
</mxfile>
